<?xml version="1.0" encoding="utf-8"?>
<!-- Generator: Adobe Illustrator 19.2.0, SVG Export Plug-In . SVG Version: 6.00 Build 0)  -->
<svg version="1.1" id="Layer_1" xmlns="http://www.w3.org/2000/svg" xmlns:xlink="http://www.w3.org/1999/xlink" x="0px" y="0px"
	 viewBox="0 0 223.4 223.4" style="enable-background:new 0 0 223.4 223.4;" xml:space="preserve">
<style type="text/css">
	.st0{fill:#B99B7F;}
</style>
<path class="st0" d="M191.4,0H31.9C14.3,0,0,14.3,0,31.9v159.5c0,17.6,14.3,31.9,31.9,31.9h80.8c0-25.2,0-53.4,0-79.4
	c-6,0-14.6,0-20.6,0c0-10.2,0-17.6,0-27.8c5.8,0,14.6,0,20.4,0c0.8-20.3-1.2-36.8,11.2-50.7c10.8-12,17.9-10.1,51-10.1
	c0,10.2,0,28.4,0,28.4s-23.7-3.3-26.2,5.9c-2.3,8.6-1.2,17.2-1.4,26.5c9.1,0,18.6,0,27.8,0c-2.3,10.8-1.5,18.1-3.2,27.4
	c-7.9,0-24.7,0-24.7,0v79.8h44.4c17.6,0,31.9-14.3,31.9-31.9V31.9C223.4,14.3,209,0,191.4,0z"/>
</svg>
