<?xml version="1.0" encoding="utf-8"?>
<!-- Generator: Adobe Illustrator 19.2.0, SVG Export Plug-In . SVG Version: 6.00 Build 0)  -->
<svg version="1.1" id="Layer_1" xmlns="http://www.w3.org/2000/svg" xmlns:xlink="http://www.w3.org/1999/xlink" x="0px" y="0px"
	 viewBox="0 0 223.4 223.4" style="enable-background:new 0 0 223.4 223.4;" xml:space="preserve">
<style type="text/css">
	.st0{fill:#B99B7F;}
</style>
<path class="st0" d="M191.4,0H31.9C14.3,0,0,14.3,0,31.9v159.5c0,17.6,14.3,31.9,31.9,31.9h159.5c17.6,0,31.9-14.3,31.9-31.9V31.9
	C223.4,14.3,209,0,191.4,0z M156.4,29.1h38.9v35.5h-38.9V29.1z M111.7,75.6c20,0,36.1,16.2,36.1,36.1c0,20-16.2,36.1-36.1,36.1
	c-20,0-36.1-16.2-36.1-36.1C75.6,91.7,91.7,75.6,111.7,75.6z M201.2,185.4c0.1,8.8-7,15.9-15.8,15.9H37.9c-8.7,0-15.9-7.1-15.9-15.9
	V89.1h34.8c-2.9,7-4.5,14.6-4.5,22.5c0,32.7,26.6,59.3,59.3,59.3c32.7,0,59.3-26.6,59.3-59.3c0-8-1.6-15.6-4.5-22.5h34.8V185.4z"/>
</svg>
