<?xml version="1.0" encoding="utf-8"?>
<!-- Generator: Adobe Illustrator 19.2.0, SVG Export Plug-In . SVG Version: 6.00 Build 0)  -->
<svg version="1.1" id="Layer_1" xmlns="http://www.w3.org/2000/svg" xmlns:xlink="http://www.w3.org/1999/xlink" x="0px" y="0px"
	 viewBox="0 0 441.5 170.9" style="enable-background:new 0 0 441.5 170.9;" xml:space="preserve">
<style type="text/css">
	.st0{fill-rule:evenodd;clip-rule:evenodd;fill:#FFFFFF;}
</style>
<path class="st0" d="M146.6,21.1h8.2h0.6v0.6v82.4h21.8h0.6v0.6v1.9v0.6h-0.6h-22.4h-8.2h-0.6v-0.6v-1.9v-83v-0.6H146.6L146.6,21.1z
	 M218,78.1h18.5l-10.7-41.6l-18.2,70.7h-0.5h-2.4h-0.8c8.1-31.3,16.1-62.7,24.3-94l1.1,0l24.2,94h-0.8h-8.3H244l-6.7-26.1H218h-0.6
	v-0.6v-1.9v-0.6H218L218,78.1z"/>
<path class="st0" d="M5.7,56.7c-0.6-1.5-1.2-3-1.8-4.5c-0.5-1.5-1-2.9-1.4-4.4c-0.2-0.6-0.4-1.3-0.5-1.9C-0.9,35.1-0.6,25.1,3,17
	C7.1,7.7,16.7,2.5,26.4,0l0,0C12.8,6.6,7.9,16.3,8.2,25.9c0.3,9.7,5,19.9,9.1,28.3l0,0l0,0c0.6,1.2,1.2,2.4,1.8,3.6
	c1.8,3.7,3.6,7.4,5.2,11.1c0.6,1.5,1.2,3,1.8,4.5c0.5,1.5,1,2.9,1.4,4.4c0.2,0.6,0.4,1.3,0.5,1.9c2.8,10.8,2.5,20.8-1,28.9
	c-4.2,9.3-13.8,14.5-23.4,17l0,0C17,119.1,22,109.3,21.7,99.7c-0.3-9.7-5-19.9-9.1-28.3l0,0l0,0c-0.6-1.2-1.2-2.4-1.8-3.6
	C9.1,64.1,7.3,60.5,5.7,56.7L5.7,56.7L5.7,56.7z"/>
<path class="st0" d="M417.3,56.7c-0.6-1.5-1.2-3-1.8-4.5c-0.5-1.5-1-2.9-1.4-4.4c-0.2-0.6-0.4-1.3-0.5-1.9
	c-2.8-10.8-2.5-20.8,1-28.9c4.2-9.3,13.8-14.5,23.4-17l0,0c-13.6,6.6-18.5,16.3-18.2,25.9c0.3,9.7,5,19.9,9.1,28.3v0l0,0
	c0.6,1.2,1.2,2.4,1.8,3.6c1.8,3.7,3.6,7.4,5.2,11.1c0.6,1.5,1.2,3,1.8,4.5c0.5,1.5,1,2.9,1.4,4.4c0.2,0.6,0.4,1.3,0.5,1.9
	c2.8,10.8,2.5,20.8-1,28.9c-4.2,9.3-13.8,14.5-23.4,17l0,0c13.6-6.6,18.5-16.3,18.2-25.9c-0.3-9.7-5-19.9-9.1-28.3l0,0l0,0
	c-0.6-1.2-1.2-2.4-1.8-3.6C420.7,64.1,418.8,60.5,417.3,56.7L417.3,56.7L417.3,56.7z"/>
<polygon class="st0" points="366.5,21.1 374.7,21.1 375.3,21.1 375.3,21.7 375.3,106.6 375.3,107.2 374.7,107.2 366.5,107.2 
	365.9,107.2 365.9,106.6 365.9,21.7 365.9,21.1 366.5,21.1 "/>
<path class="st0" d="M82.8,108.1c-2.8-0.5-5.3-1.7-7.5-3.3c-2.2-1.6-4.2-3.7-6-6.1c-1.7-2.4-3.2-5.2-4.4-8.3
	c-3.1-7.6-4.6-16.9-4.6-26.1v0v-0.1v-0.1v0c0-3.7,0.2-7.4,0.7-11c0.4-2.6,0.8-5.2,1.5-7.6c0.6-2.5,1.4-4.8,2.2-7.1
	c3.7-9.5,9.7-16.5,18.1-18.1l0,0c0.4-0.1,0.9-0.2,1.3-0.2c0.5-0.1,1-0.1,1.4-0.1c2.5-0.2,5.1-0.1,7.4,0.4c2.5,0.5,4.9,1.5,7,2.9
	c2.1,1.4,4,3.2,5.7,5.3c1.7,2.1,3.1,4.6,4.4,7.2c3.7,8,5.6,18.2,5.6,28.4v0l0,0.1l0,0.1v0c0,3.4-0.2,6.8-0.6,10.1
	c-0.3,2.6-0.8,5.2-1.4,7.7c-0.6,2.5-1.3,4.9-2.2,7.2c-3.7,9.8-9.8,17.2-18.4,18.8l0,0c-1,0.2-2.2,0.3-3.3,0.4c-0.4,0-0.7,0-1.1,0h0
	C86.5,108.5,84.5,108.4,82.8,108.1L82.8,108.1z M71.5,64.2L71.5,64.2v0.1v0.3c0,0.8,0,1.7,0,2.6c0.1,2.1,0.2,4.1,0.3,6.2
	c0.2,2.1,0.4,4.1,0.6,6.1c1.3,9.6,3.8,18,7.5,22.5c0.4,0.5,0.8,0.9,1.3,1.3c1.9,1.6,4.2,2.4,6.5,2.4c2.3,0,4.7-0.8,6.5-2.3
	c0.5-0.4,0.9-0.8,1.3-1.3c0.3-0.4,0.7-0.9,1-1.3c0.7-1.1,1.4-2.3,2-3.7c0.6-1.4,1.2-2.9,1.7-4.5c2.5-7.9,3.8-18.3,3.8-28.3h0v-0.1
	v-0.1h0c0-0.9,0-1.9,0-2.8c-0.1-2.1-0.2-4.2-0.3-6.3c-0.2-2.1-0.4-4.1-0.6-6.1v0c-1.3-9.6-3.8-18.2-7.6-22.6v0
	c-0.4-0.5-0.8-0.9-1.3-1.3c-1.9-1.6-4.2-2.3-6.5-2.3c-2.3,0-4.6,0.8-6.5,2.4h0c-0.4,0.4-0.9,0.8-1.3,1.3c-0.4,0.4-0.7,0.9-1,1.4
	c-0.7,1.1-1.4,2.3-2,3.7c-0.6,1.4-1.2,2.9-1.7,4.5C72.8,43.8,71.5,54.2,71.5,64.2L71.5,64.2L71.5,64.2L71.5,64.2z"/>
<path class="st0" d="M281.9,21.1h8h0.1h0.1h0.1h0l0,0l1.4,0c0.9,0,1.9,0,2.7,0h0l0.1,0h0c10.1,0.5,17.1,5.2,21,11.6
	c2.1,3.4,3.3,7.3,3.6,11.3c0.3,4-0.3,8-1.8,11.7c-2.6,6.5-8,11.9-16.1,14.1c0.3,0.2,0.6,0.4,1,0.7c0.8,0.7,1.6,1.6,2.4,2.8v0l0,0
	l0,0c2.3,3.3,4.5,7,6.8,10.8c7,11.7,14.5,24.9,25.5,28.3l0,0c-17.8,1.8-27.3-12.7-35.8-26.3c-1.8-2.8-3.5-5.6-5.2-8.1l0,0l-0.3-0.4
	c-1.3-2.1-3.3-5.4-4.7-6.5v35.5v0.6h-0.6h-8.2h-0.6v-0.6V21.7v-0.6H281.9L281.9,21.1z M290.7,23.9v44c0.2,0,0.5,0.1,0.8,0.1
	c0.4,0,0.9,0,1.3,0c7.2,0,11.8-5.7,13.8-13c0.8-2.9,1.2-6,1.2-9.1c0-4.5-0.8-8.9-2.5-12.7c-2.4-5.5-6.6-9.5-12.6-9.5v0
	c-0.4,0-0.9,0-1.3,0C291.2,23.9,290.9,23.9,290.7,23.9L290.7,23.9z"/>
<path class="st0" d="M220.7,127.8c-65.7,0-125.1,7.5-166.9,19.6c44.4-9.3,102.9-15,166.9-15s122.4,5.7,166.9,15
	C345.9,135.3,286.5,127.8,220.7,127.8L220.7,127.8z"/>
<path class="st0" d="M133,160.8L133,160.8L133,160.8c0.3,0,0.6,0,0.8,0l0.1,0c0.2,0,0.4,0,0.6-0.1l0,0l0.2,0v0l0.2,0
	c0.3-0.1,0.5-0.2,0.8-0.3h0l0,0v0c0,0,0.1,0,0.1-0.1c0,0,0.1-0.1,0.1-0.1l0,0c0.2-0.2,0.4-0.4,0.5-0.6h0l0,0l0,0c0,0,0-0.1,0.1-0.1
	l0,0c0-0.1,0-0.1,0.1-0.2v0c0.1-0.3,0.1-0.7,0.1-1.2v0h0c0-0.2,0-0.4-0.1-0.6l0,0l0-0.1c0-0.2-0.1-0.3-0.2-0.4
	c-0.2-0.3-0.4-0.6-0.7-0.8c-0.2-0.1-0.3-0.2-0.5-0.3l0,0c-0.2-0.1-0.4-0.1-0.6-0.2v0c-0.2,0-0.4-0.1-0.6-0.1c-0.2,0-0.4,0-0.6,0H126
	v5.3H133L133,160.8z M138.6,170.6h-2.3h-0.2l-0.1-0.2l-3.8-6.9H126v6.7v0.3h-0.3h-2h-0.3v-0.3v-17v-0.3h0.3h8.5c0.4,0,0.9,0,1.4,0.1
	h0c0.5,0,1,0.1,1.6,0.2h0c0.3,0.1,0.5,0.1,0.8,0.2h0c0.3,0.1,0.5,0.2,0.8,0.3h0l0,0c0.1,0,0.2,0.1,0.2,0.1l0,0l0.2,0.1l0,0
	c0.3,0.2,0.7,0.4,0.9,0.7l0,0l0,0c0.1,0.1,0.1,0.1,0.2,0.2c0.1,0.1,0.1,0.1,0.2,0.2c0.3,0.3,0.5,0.7,0.6,1.1h0
	c0.1,0.3,0.2,0.6,0.3,0.9v0c0.1,0.3,0.1,0.7,0.1,1.1c0,0.5,0,0.9-0.1,1.3c-0.1,0.4-0.2,0.8-0.3,1.1c-0.3,0.7-0.7,1.2-1.1,1.6l0,0
	l0,0c-0.1,0.1-0.1,0.1-0.2,0.2l-0.2,0.2l0,0c-0.3,0.3-0.7,0.5-1.1,0.6c-0.3,0.1-0.5,0.2-0.8,0.2c-0.1,0-0.2,0-0.3,0.1l3.7,6.6
	l0.3,0.5H138.6L138.6,170.6z M174.5,170.6H160h-0.3v-0.3v-17v-0.3h0.3h14h0.3v0.3v2v0.3H174h-11.6v4.5h6h0.3v0.3v2v0.3h-0.3h-6v5.1
	h12.1h0.3v0.3v2v0.3H174.5L174.5,170.6z M203.3,159.9c0.4,0,0.8,0,1.2,0.1h0c0.4,0,0.8,0.1,1.2,0.2l0,0h0c0.1,0,0.2,0.1,0.3,0.1
	c0.1,0,0.2,0.1,0.3,0.1c0.5,0.2,1,0.4,1.5,0.7h0c0.6,0.4,1.2,1,1.6,1.6v0c0.2,0.3,0.4,0.7,0.5,1.2c0.1,0.4,0.1,0.9,0.1,1.4v0h0
	c0,0.5-0.1,1-0.2,1.4c0,0.1-0.1,0.3-0.1,0.4c-0.1,0.3-0.2,0.5-0.4,0.8h0c-0.2,0.4-0.5,0.7-0.8,1c-0.3,0.3-0.7,0.6-1.1,0.8l0,0l0,0
	l0,0c-0.1,0.1-0.2,0.1-0.3,0.2c-0.1,0.1-0.2,0.1-0.4,0.2v0c-0.6,0.3-1.3,0.5-2,0.7c-0.5,0.1-1,0.2-1.5,0.3c-0.5,0.1-1,0.1-1.6,0.1
	c-1.3,0-2.5-0.1-3.5-0.4h0l0,0v0c-0.1,0-0.3-0.1-0.4-0.1l0,0l-0.4-0.1l0,0c-0.6-0.2-1.2-0.5-1.7-0.8c-0.3-0.2-0.7-0.4-0.9-0.6
	c-0.3-0.2-0.6-0.4-0.8-0.6c-0.4-0.4-0.8-0.8-1-1l-0.2-0.2l0.2-0.2l1.4-1.4l0.2-0.2l0.2,0.2l0,0l0,0l0.1,0.1l0,0l0.1,0.1h0
	c0.2,0.2,0.4,0.4,0.7,0.7l0.1,0.1l0.2,0.1c0.3,0.2,0.6,0.5,1,0.7c0.3,0.2,0.6,0.3,0.9,0.4c0.3,0.1,0.7,0.3,1.1,0.4
	c0.7,0.2,1.7,0.3,2.7,0.3v0c0.5,0,0.9,0,1.3-0.1h0c0.4,0,0.8-0.1,1.2-0.2l0,0c0.1,0,0.2-0.1,0.3-0.1h0c0.1,0,0.2-0.1,0.3-0.1
	c0.5-0.1,0.9-0.3,1.2-0.5h0c0.2-0.1,0.4-0.3,0.6-0.5l0,0c0.2-0.2,0.3-0.3,0.4-0.5c0.2-0.4,0.4-0.8,0.4-1.2c0-0.2,0-0.5-0.1-0.6
	c-0.1-0.2-0.1-0.4-0.2-0.5v0l0,0l0,0l-0.1-0.1l0,0l-0.1-0.1c-0.2-0.2-0.4-0.4-0.6-0.5l0,0l0,0l-0.2-0.1l-0.2-0.1v0
	c-0.3-0.1-0.5-0.2-0.8-0.3l0,0c-0.1,0-0.2,0-0.3-0.1c-0.1,0-0.2,0-0.3,0c-0.2,0-0.4,0-0.6,0h-3.6c-0.8,0-1.6-0.1-2.4-0.2
	c-0.4-0.1-0.7-0.2-1.1-0.3v0c-0.3-0.1-0.7-0.3-0.9-0.5c-0.3-0.2-0.6-0.4-0.8-0.6l0,0c-0.2-0.2-0.4-0.5-0.6-0.8h0l0,0v0
	c-0.1-0.1-0.2-0.3-0.2-0.5h0c-0.1-0.2-0.1-0.3-0.2-0.5v0c-0.1-0.4-0.1-0.8-0.1-1.2c0-0.6,0.2-1.3,0.5-1.9c0.2-0.3,0.3-0.6,0.6-0.9
	c0.2-0.3,0.5-0.6,0.8-0.8c0.3-0.3,0.7-0.5,1.1-0.7c0.4-0.2,0.8-0.4,1.3-0.6h0l0,0l0,0c0.1,0,0.3-0.1,0.4-0.1c0.1,0,0.3-0.1,0.4-0.1
	c0.8-0.2,1.6-0.2,2.6-0.2c0.5,0,1,0,1.4,0.1c0.5,0.1,0.9,0.1,1.3,0.2l0,0l0,0l0.3,0.1l0,0l0.3,0.1l0,0c0.5,0.2,1,0.3,1.5,0.5h0
	c0.3,0.1,0.6,0.3,0.8,0.4c0.3,0.1,0.5,0.3,0.7,0.4l0,0l0,0l0.2,0.1l0.2,0.1l0.6,0.4l0.3,0.2l-0.2,0.3l-1.2,1.6l-0.2,0.2l-0.3-0.2
	l-1-0.7h0c-0.2-0.1-0.4-0.2-0.6-0.3c-0.2-0.1-0.4-0.2-0.6-0.3l0,0l0,0l-0.2-0.1l-0.2-0.1l0,0c-0.3-0.1-0.7-0.2-1.1-0.3v0
	c-0.3-0.1-0.6-0.1-0.9-0.1c-0.3,0-0.7,0-1.1,0v0c-0.5,0-0.9,0-1.3,0.1c-0.4,0-0.7,0.1-1.1,0.2c-0.6,0.2-1.2,0.4-1.5,0.7l0,0l0,0
	l-0.2,0.1c-0.1,0-0.1,0.1-0.1,0.1h0c-0.2,0.2-0.4,0.4-0.5,0.6c-0.1,0.2-0.2,0.3-0.2,0.5c0,0.1-0.1,0.3-0.1,0.4
	c0,0.5,0.1,0.8,0.4,1.1l0,0l0,0c0,0,0.1,0.1,0.1,0.1l0.1,0.1c0.2,0.2,0.5,0.3,0.8,0.4l0.1,0v0l0.2,0v0l0.2,0c0.3,0.1,0.7,0.1,1,0.1
	l0.2,0l0.2,0l0.3,0c0.3,0,0.6,0,0.9,0H203.3L203.3,159.9z M205,155.8L205,155.8L205,155.8L205,155.8z M231.6,161.7
	c0,0.9,0.2,1.7,0.5,2.5l0,0l0,0c0.1,0.1,0.1,0.2,0.2,0.3c0.1,0.1,0.1,0.2,0.2,0.3c0.3,0.5,0.7,1,1.1,1.4c0.3,0.3,0.6,0.6,1,0.8
	c0.4,0.2,0.7,0.4,1.2,0.6c0.8,0.3,1.7,0.5,2.7,0.5c1,0,1.9-0.2,2.7-0.5c0.4-0.2,0.8-0.4,1.2-0.6c0.4-0.2,0.7-0.5,1-0.8h0l0,0l0,0
	c0.1-0.1,0.2-0.2,0.2-0.3c0.1-0.1,0.1-0.2,0.2-0.3c0.4-0.5,0.7-1,0.9-1.6c0.2-0.4,0.3-0.8,0.4-1.2c0.1-0.4,0.1-0.9,0.1-1.3
	c0-0.9-0.2-1.7-0.5-2.5l0,0l0,0l0,0c-0.1-0.1-0.1-0.2-0.2-0.3c-0.1-0.1-0.1-0.2-0.2-0.3c-0.3-0.5-0.7-1-1.1-1.4
	c-0.3-0.3-0.6-0.6-1-0.8c-0.4-0.2-0.8-0.4-1.2-0.6c-0.4-0.2-0.9-0.3-1.3-0.4c-0.4-0.1-0.9-0.1-1.4-0.1c-1,0-1.9,0.2-2.7,0.5
	c-0.4,0.2-0.8,0.4-1.2,0.6h0c-0.4,0.2-0.7,0.5-1,0.8l0,0l0,0h0c-0.1,0.1-0.2,0.2-0.2,0.3c-0.1,0.1-0.2,0.2-0.2,0.3l0,0
	c-0.4,0.5-0.7,1-0.9,1.6c-0.2,0.4-0.3,0.8-0.4,1.2C231.7,160.8,231.6,161.3,231.6,161.7L231.6,161.7z M228.9,161.7
	c0-1.2,0.2-2.4,0.7-3.5h0l0,0v0c0.1-0.1,0.1-0.3,0.2-0.5c0.1-0.2,0.2-0.3,0.2-0.4c0.4-0.7,0.9-1.4,1.5-2c0.4-0.4,0.9-0.8,1.4-1.1
	c0.5-0.3,1-0.6,1.6-0.9l0,0c0.2-0.1,0.3-0.1,0.5-0.2c0.2-0.1,0.3-0.1,0.5-0.2c0.9-0.3,1.8-0.4,2.8-0.4v0c0.7,0,1.3,0.1,1.9,0.2
	c0.6,0.1,1.2,0.3,1.8,0.6c0.6,0.2,1.1,0.5,1.6,0.9c0.5,0.3,1,0.7,1.4,1.1l0,0l0,0l0,0c0.1,0.1,0.2,0.2,0.3,0.4h0
	c0.1,0.1,0.2,0.2,0.3,0.4c0.5,0.7,1,1.4,1.3,2.2h0c0.2,0.6,0.4,1.1,0.5,1.7v0c0.1,0.6,0.2,1.2,0.2,1.8c0,1.2-0.2,2.4-0.7,3.5h0l0,0
	v0c-0.1,0.1-0.1,0.3-0.2,0.5c-0.1,0.2-0.2,0.3-0.2,0.4c-0.4,0.7-0.9,1.4-1.5,2c-0.8,0.8-1.9,1.5-3,2c-0.6,0.2-1.2,0.4-1.8,0.6
	c-0.6,0.1-1.3,0.2-1.9,0.2v0c-0.7,0-1.3-0.1-1.9-0.2c-0.6-0.1-1.2-0.3-1.8-0.6c-1.2-0.5-2.2-1.2-3-2h0l0,0l0,0
	c-0.1-0.1-0.2-0.2-0.3-0.4h0c-0.1-0.1-0.2-0.2-0.3-0.4c-0.5-0.7-1-1.4-1.3-2.2h0C229.2,164.1,228.9,163,228.9,161.7L228.9,161.7z
	 M278.1,160.8L278.1,160.8L278.1,160.8c0.3,0,0.6,0,0.8,0l0.1,0c0.2,0,0.4,0,0.6-0.1l0,0l0.2,0v0l0.2,0c0.3-0.1,0.5-0.2,0.8-0.3h0
	l0,0v0c0,0,0.1,0,0.1-0.1c0,0,0.1-0.1,0.1-0.1l0,0c0.2-0.2,0.4-0.4,0.5-0.6h0l0,0h0c0,0,0-0.1,0.1-0.1l0,0c0-0.1,0-0.1,0.1-0.2v0
	c0.1-0.3,0.1-0.7,0.1-1.2v0h0c0-0.2,0-0.4-0.1-0.6l0,0l0-0.1c0-0.2-0.1-0.3-0.2-0.4c-0.2-0.3-0.4-0.6-0.7-0.8
	c-0.2-0.1-0.3-0.2-0.5-0.3l0,0c-0.2-0.1-0.4-0.1-0.6-0.2v0c-0.2,0-0.4-0.1-0.6-0.1c-0.2,0-0.4,0-0.6,0h-7.3v5.3H278.1L278.1,160.8z
	 M283.8,170.6h-2.3h-0.2l-0.1-0.2l-3.8-6.9h-6.2v6.7v0.3h-0.3h-2h-0.3v-0.3v-17v-0.3h0.3h8.5c0.4,0,0.9,0,1.4,0.1h0
	c0.5,0,1,0.1,1.6,0.2h0c0.3,0.1,0.5,0.1,0.8,0.2h0c0.3,0.1,0.5,0.2,0.8,0.3h0l0,0c0.1,0,0.2,0.1,0.2,0.1l0,0l0.2,0.1l0,0
	c0.3,0.2,0.7,0.4,0.9,0.7l0,0l0,0c0.1,0.1,0.1,0.1,0.2,0.2c0.1,0.1,0.1,0.1,0.2,0.2c0.3,0.3,0.5,0.7,0.6,1.1h0
	c0.1,0.3,0.2,0.6,0.3,0.9v0c0.1,0.3,0.1,0.7,0.1,1.1c0,0.5,0,0.9-0.1,1.3c-0.1,0.4-0.2,0.8-0.3,1.1c-0.3,0.7-0.7,1.2-1.1,1.6l0,0
	l0,0c-0.1,0.1-0.1,0.1-0.2,0.2l-0.2,0.2l0,0c-0.3,0.3-0.7,0.5-1.1,0.6c-0.3,0.1-0.5,0.2-0.8,0.2c-0.1,0-0.2,0-0.3,0.1l3.7,6.6
	l0.3,0.5H283.8L283.8,170.6z M311.6,170.6h-2h-0.3v-0.3v-14.7h-5.9H303v-0.3v-2v-0.3h0.3h14.4h0.3v0.3v2v0.3h-0.3h-5.9v14.7v0.3
	H311.6L311.6,170.6z"/>
</svg>
